<svg xmlns="http://www.w3.org/2000/svg" xmlns:xlink="http://www.w3.org/1999/xlink" version="1.1" x="0px" y="0px" viewBox="0 0 287.402 287.402" xml:space="preserve">
<g>
	<path d="M188.437,167.646c-12.651,0-24.436-6.82-30.756-17.798c-4.602-7.994-5.878-17.407-3.594-26.505l7.66-30.506   c2.527-10.064,7.741-19.261,15.077-26.597l50.036-50.036c-1.214-7.066-7.355-12.447-14.767-12.447H15c-8.284,0-15,6.716-15,15   v249.89c0,8.284,6.716,15,15,15h197.094c8.284,0,15-6.716,15-15V159.04l-30.018,7.537   C194.253,167.287,191.347,167.646,188.437,167.646z M137.795,191.813l-44.599,35.599c-2.75,2.194-6.058,3.276-9.354,3.276   c-3.858,0-7.698-1.482-10.61-4.394l-19.799-19.8c-5.858-5.858-5.858-15.355,0-21.213c5.857-5.857,15.355-5.859,21.213,0   l10.316,10.316l34.117-27.232c6.477-5.167,15.913-4.107,21.081,2.366C145.329,177.207,144.27,186.645,137.795,191.813z    M137.795,94.882L93.196,130.48c-2.75,2.194-6.058,3.276-9.354,3.276c-3.857,0-7.698-1.482-10.61-4.394l-19.799-19.799   c-5.858-5.857-5.858-15.355,0-21.213c5.857-5.857,15.355-5.857,21.213,0l10.316,10.316l34.117-27.232   c6.477-5.169,15.914-4.107,21.081,2.366C145.329,80.276,144.27,89.714,137.795,94.882z" fill="#FFFFFF"/>
	<path d="M276.797,12.958c-2.588,0-5.224,0.96-7.37,3.105l-71.389,71.389c-3.502,3.502-5.988,7.887-7.194,12.69l-7.66,30.506   c-0.357,1.424-0.235,2.96,0.497,4.232c1.021,1.774,2.857,2.765,4.756,2.765c0.443,0,0.891-0.054,1.331-0.165l30.704-7.71   c4.803-1.206,9.189-3.692,12.69-7.194l43.493-43.493c6.881-6.881,10.747-16.214,10.747-25.946v-29.63   C287.402,17.162,282.21,12.958,276.797,12.958z" fill="#FFFFFF"/>
</g>
</svg>